<?xml version="1.0" encoding="UTF-8" standalone="no"?>
<!DOCTYPE svg PUBLIC "-//W3C//DTD SVG 1.1//EN" "http://www.w3.org/Graphics/SVG/1.1/DTD/svg11.dtd">
<svg width="100%" height="100%" viewBox="0 0 463 404" version="1.1" xmlns="http://www.w3.org/2000/svg" xmlns:xlink="http://www.w3.org/1999/xlink" xml:space="preserve" xmlns:serif="http://www.serif.com/" style="fill-rule:evenodd;clip-rule:evenodd;stroke-linejoin:round;stroke-miterlimit:2;">
    <g transform="matrix(1.02004,0,0,1.02004,-547.022,-35.0541)">
        <g transform="matrix(96,0,0,96,550,292.953)">
            <path d="M0.976,0.097L0.976,0.193L0.879,0.193L0.879,0.097L0.976,0.097ZM0.879,0.097L0.879,0.001L0.976,0.001L0.976,0.097L0.879,0.097ZM0.879,0.001L0.879,-0.097L0.976,-0.097L0.976,0.001L0.879,0.001ZM0.879,-0.097L0.879,-0.195L0.976,-0.195L0.976,-0.097L0.879,-0.097ZM0.879,-0.195L0.879,-0.293L0.976,-0.293L0.976,-0.195L0.879,-0.195ZM0.879,-0.293L0.879,-0.391L0.976,-0.391L0.976,-0.293L0.879,-0.293ZM0.879,-0.391L0.879,-0.489L0.976,-0.489L0.976,-0.391L0.879,-0.391ZM0.879,-0.489L0.879,-0.587L0.976,-0.587L0.976,-0.489L0.879,-0.489ZM0.879,0.097L0.879,0.193L0.782,0.193L0.782,0.097L0.879,0.097ZM0.782,0.097L0.782,0.001L0.879,0.001L0.879,0.097L0.782,0.097ZM0.782,0.001L0.782,-0.097L0.879,-0.097L0.879,0.001L0.782,0.001ZM0.782,-0.097L0.782,-0.195L0.879,-0.195L0.879,-0.097L0.782,-0.097ZM0.782,-0.195L0.782,-0.293L0.879,-0.293L0.879,-0.195L0.782,-0.195ZM0.782,-0.293L0.782,-0.391L0.879,-0.391L0.879,-0.293L0.782,-0.293ZM0.782,-0.391L0.782,-0.489L0.879,-0.489L0.879,-0.391L0.782,-0.391ZM0.782,-0.489L0.782,-0.587L0.879,-0.587L0.879,-0.489L0.782,-0.489ZM0.782,-0.587L0.782,-0.683L0.879,-0.683L0.879,-0.587L0.782,-0.587ZM0.684,-0.683L0.684,-0.781L0.782,-0.781L0.782,-0.683L0.684,-0.683ZM0.782,0.097L0.782,0.193L0.684,0.193L0.684,0.097L0.782,0.097ZM0.684,0.097L0.684,0.001L0.782,0.001L0.782,0.097L0.684,0.097ZM0.684,-0.391L0.684,-0.489L0.782,-0.489L0.782,-0.391L0.684,-0.391ZM0.684,-0.587L0.684,-0.683L0.782,-0.683L0.782,-0.587L0.684,-0.587ZM0.586,-0.683L0.586,-0.781L0.684,-0.781L0.684,-0.683L0.586,-0.683ZM0.684,0.097L0.684,0.193L0.586,0.193L0.586,0.097L0.684,0.097ZM0.586,0.097L0.586,0.001L0.684,0.001L0.684,0.097L0.586,0.097ZM0.586,0.001L0.586,-0.097L0.684,-0.097L0.684,0.001L0.586,0.001ZM0.586,-0.391L0.586,-0.489L0.684,-0.489L0.684,-0.391L0.586,-0.391ZM0.488,-0.683L0.488,-0.781L0.586,-0.781L0.586,-0.683L0.488,-0.683ZM0.586,0.097L0.586,0.193L0.488,0.193L0.488,0.097L0.586,0.097ZM0.488,0.097L0.488,0.001L0.586,0.001L0.586,0.097L0.488,0.097ZM0.488,-0.097L0.488,-0.195L0.586,-0.195L0.586,-0.097L0.488,-0.097ZM0.488,-0.195L0.488,-0.293L0.586,-0.293L0.586,-0.195L0.488,-0.195ZM0.488,-0.391L0.488,-0.489L0.586,-0.489L0.586,-0.391L0.488,-0.391ZM0.488,-0.489L0.488,-0.587L0.586,-0.587L0.586,-0.489L0.488,-0.489ZM0.39,-0.683L0.39,-0.781L0.488,-0.781L0.488,-0.683L0.39,-0.683ZM0.488,0.097L0.488,0.193L0.39,0.193L0.39,0.097L0.488,0.097ZM0.39,0.097L0.39,0.001L0.488,0.001L0.488,0.097L0.39,0.097ZM0.39,-0.097L0.39,-0.195L0.488,-0.195L0.488,-0.097L0.39,-0.097ZM0.39,-0.195L0.39,-0.293L0.488,-0.293L0.488,-0.195L0.39,-0.195ZM0.39,-0.293L0.39,-0.391L0.488,-0.391L0.488,-0.293L0.39,-0.293ZM0.39,-0.391L0.39,-0.489L0.488,-0.489L0.488,-0.391L0.39,-0.391ZM0.39,-0.489L0.39,-0.587L0.488,-0.587L0.488,-0.489L0.39,-0.489ZM0.294,-0.683L0.294,-0.781L0.39,-0.781L0.39,-0.683L0.294,-0.683ZM0.39,0.097L0.39,0.193L0.294,0.193L0.294,0.097L0.39,0.097ZM0.294,0.097L0.294,0.001L0.39,0.001L0.39,0.097L0.294,0.097ZM0.294,-0.097L0.294,-0.195L0.39,-0.195L0.39,-0.097L0.294,-0.097ZM0.294,-0.195L0.294,-0.293L0.39,-0.293L0.39,-0.195L0.294,-0.195ZM0.294,-0.293L0.294,-0.391L0.39,-0.391L0.39,-0.293L0.294,-0.293ZM0.294,-0.391L0.294,-0.489L0.39,-0.489L0.39,-0.391L0.294,-0.391ZM0.294,-0.489L0.294,-0.587L0.39,-0.587L0.39,-0.489L0.294,-0.489ZM0.196,-0.683L0.196,-0.781L0.294,-0.781L0.294,-0.683L0.196,-0.683ZM0.294,0.097L0.294,0.193L0.196,0.193L0.196,0.097L0.294,0.097ZM0.196,0.097L0.196,0.001L0.294,0.001L0.294,0.097L0.196,0.097ZM0.098,-0.683L0.098,-0.781L0.196,-0.781L0.196,-0.683L0.098,-0.683ZM0.098,0.097L0.098,0.001L0.196,0.001L0.196,0.097L0.098,0.097ZM0.098,0.001L0.098,-0.097L0.196,-0.097L0.196,0.001L0.098,0.001ZM0.098,-0.587L0.098,-0.683L0.196,-0.683L0.196,-0.587L0.098,-0.587ZM0,0.001L0,-0.097L0.098,-0.097L0.098,0.001L0,0.001ZM0,-0.097L0,-0.195L0.098,-0.195L0.098,-0.097L0,-0.097ZM0,-0.195L0,-0.293L0.098,-0.293L0.098,-0.195L0,-0.195ZM0,-0.293L0,-0.391L0.098,-0.391L0.098,-0.293L0,-0.293ZM0,-0.391L0,-0.489L0.098,-0.489L0.098,-0.391L0,-0.391ZM0,-0.489L0,-0.587L0.098,-0.587L0.098,-0.489L0,-0.489ZM0,-0.587L0,-0.683L0.098,-0.683L0.098,-0.587L0,-0.587Z" style="fill-rule:nonzero;"/>
        </g>
        <g transform="matrix(96,0,0,96,634.422,292.953)">
            <path d="M0.976,0.097L0.976,0.193L0.879,0.193L0.879,0.097L0.976,0.097ZM0.879,0.097L0.879,0.001L0.976,0.001L0.976,0.097L0.879,0.097ZM0.879,0.001L0.879,-0.097L0.976,-0.097L0.976,0.001L0.879,0.001ZM0.879,-0.097L0.879,-0.195L0.976,-0.195L0.976,-0.097L0.879,-0.097ZM0.879,-0.195L0.879,-0.293L0.976,-0.293L0.976,-0.195L0.879,-0.195ZM0.879,-0.293L0.879,-0.391L0.976,-0.391L0.976,-0.293L0.879,-0.293ZM0.879,-0.391L0.879,-0.489L0.976,-0.489L0.976,-0.391L0.879,-0.391ZM0.879,-0.489L0.879,-0.587L0.976,-0.587L0.976,-0.489L0.879,-0.489ZM0.879,0.097L0.879,0.193L0.782,0.193L0.782,0.097L0.879,0.097ZM0.782,0.097L0.782,0.001L0.879,0.001L0.879,0.097L0.782,0.097ZM0.782,0.001L0.782,-0.097L0.879,-0.097L0.879,0.001L0.782,0.001ZM0.782,-0.097L0.782,-0.195L0.879,-0.195L0.879,-0.097L0.782,-0.097ZM0.782,-0.195L0.782,-0.293L0.879,-0.293L0.879,-0.195L0.782,-0.195ZM0.782,-0.293L0.782,-0.391L0.879,-0.391L0.879,-0.293L0.782,-0.293ZM0.782,-0.391L0.782,-0.489L0.879,-0.489L0.879,-0.391L0.782,-0.391ZM0.782,-0.489L0.782,-0.587L0.879,-0.587L0.879,-0.489L0.782,-0.489ZM0.782,-0.587L0.782,-0.683L0.879,-0.683L0.879,-0.587L0.782,-0.587ZM0.684,-0.683L0.684,-0.781L0.782,-0.781L0.782,-0.683L0.684,-0.683ZM0.782,0.097L0.782,0.193L0.684,0.193L0.684,0.097L0.782,0.097ZM0.684,0.097L0.684,0.001L0.782,0.001L0.782,0.097L0.684,0.097ZM0.684,-0.587L0.684,-0.683L0.782,-0.683L0.782,-0.587L0.684,-0.587ZM0.586,-0.683L0.586,-0.781L0.684,-0.781L0.684,-0.683L0.586,-0.683ZM0.684,0.097L0.684,0.193L0.586,0.193L0.586,0.097L0.684,0.097ZM0.586,0.097L0.586,0.001L0.684,0.001L0.684,0.097L0.586,0.097ZM0.488,-0.683L0.488,-0.781L0.586,-0.781L0.586,-0.683L0.488,-0.683ZM0.488,0.097L0.488,0.001L0.586,0.001L0.586,0.097L0.488,0.097ZM0.488,0.001L0.488,-0.097L0.586,-0.097L0.586,0.001L0.488,0.001ZM0.488,-0.097L0.488,-0.195L0.586,-0.195L0.586,-0.097L0.488,-0.097ZM0.488,-0.293L0.488,-0.391L0.586,-0.391L0.586,-0.293L0.488,-0.293ZM0.488,-0.391L0.488,-0.489L0.586,-0.489L0.586,-0.391L0.488,-0.391ZM0.488,-0.489L0.488,-0.587L0.586,-0.587L0.586,-0.489L0.488,-0.489ZM0.39,-0.683L0.39,-0.781L0.488,-0.781L0.488,-0.683L0.39,-0.683ZM0.488,0.097L0.488,0.193L0.39,0.193L0.39,0.097L0.488,0.097ZM0.39,0.097L0.39,0.001L0.488,0.001L0.488,0.097L0.39,0.097ZM0.39,0.001L0.39,-0.097L0.488,-0.097L0.488,0.001L0.39,0.001ZM0.39,-0.097L0.39,-0.195L0.488,-0.195L0.488,-0.097L0.39,-0.097ZM0.39,-0.293L0.39,-0.391L0.488,-0.391L0.488,-0.293L0.39,-0.293ZM0.39,-0.391L0.39,-0.489L0.488,-0.489L0.488,-0.391L0.39,-0.391ZM0.39,-0.489L0.39,-0.587L0.488,-0.587L0.488,-0.489L0.39,-0.489ZM0.294,-0.683L0.294,-0.781L0.39,-0.781L0.39,-0.683L0.294,-0.683ZM0.39,0.097L0.39,0.193L0.294,0.193L0.294,0.097L0.39,0.097ZM0.294,0.097L0.294,0.001L0.39,0.001L0.39,0.097L0.294,0.097ZM0.294,0.001L0.294,-0.097L0.39,-0.097L0.39,0.001L0.294,0.001ZM0.294,-0.097L0.294,-0.195L0.39,-0.195L0.39,-0.097L0.294,-0.097ZM0.294,-0.293L0.294,-0.391L0.39,-0.391L0.39,-0.293L0.294,-0.293ZM0.294,-0.391L0.294,-0.489L0.39,-0.489L0.39,-0.391L0.294,-0.391ZM0.294,-0.489L0.294,-0.587L0.39,-0.587L0.39,-0.489L0.294,-0.489ZM0.196,-0.683L0.196,-0.781L0.294,-0.781L0.294,-0.683L0.196,-0.683ZM0.294,0.097L0.294,0.193L0.196,0.193L0.196,0.097L0.294,0.097ZM0.196,0.097L0.196,0.001L0.294,0.001L0.294,0.097L0.196,0.097ZM0.098,-0.683L0.098,-0.781L0.196,-0.781L0.196,-0.683L0.098,-0.683ZM0.196,0.097L0.196,0.193L0.098,0.193L0.098,0.097L0.196,0.097ZM0.098,0.097L0.098,0.001L0.196,0.001L0.196,0.097L0.098,0.097ZM0.098,-0.587L0.098,-0.683L0.196,-0.683L0.196,-0.587L0.098,-0.587ZM0,0.097L0,0.001L0.098,0.001L0.098,0.097L0,0.097ZM0,0.001L0,-0.097L0.098,-0.097L0.098,0.001L0,0.001ZM0,-0.097L0,-0.195L0.098,-0.195L0.098,-0.097L0,-0.097ZM0,-0.195L0,-0.293L0.098,-0.293L0.098,-0.195L0,-0.195ZM0,-0.293L0,-0.391L0.098,-0.391L0.098,-0.293L0,-0.293ZM0,-0.391L0,-0.489L0.098,-0.489L0.098,-0.391L0,-0.391ZM0,-0.489L0,-0.587L0.098,-0.587L0.098,-0.489L0,-0.489ZM0,-0.587L0,-0.683L0.098,-0.683L0.098,-0.587L0,-0.587Z" style="fill-rule:nonzero;"/>
        </g>
        <g transform="matrix(96,0,0,96,718.844,292.953)">
            <path d="M0.976,0.097L0.976,0.193L0.879,0.193L0.879,0.097L0.976,0.097ZM0.879,0.097L0.879,0.001L0.976,0.001L0.976,0.097L0.879,0.097ZM0.879,0.001L0.879,-0.097L0.976,-0.097L0.976,0.001L0.879,0.001ZM0.879,-0.097L0.879,-0.195L0.976,-0.195L0.976,-0.097L0.879,-0.097ZM0.879,-0.195L0.879,-0.293L0.976,-0.293L0.976,-0.195L0.879,-0.195ZM0.879,-0.293L0.879,-0.391L0.976,-0.391L0.976,-0.293L0.879,-0.293ZM0.879,-0.391L0.879,-0.489L0.976,-0.489L0.976,-0.391L0.879,-0.391ZM0.879,-0.489L0.879,-0.587L0.976,-0.587L0.976,-0.489L0.879,-0.489ZM0.879,-0.587L0.879,-0.683L0.976,-0.683L0.976,-0.587L0.879,-0.587ZM0.782,-0.683L0.782,-0.781L0.879,-0.781L0.879,-0.683L0.782,-0.683ZM0.879,0.097L0.879,0.193L0.782,0.193L0.782,0.097L0.879,0.097ZM0.782,0.097L0.782,0.001L0.879,0.001L0.879,0.097L0.782,0.097ZM0.782,0.001L0.782,-0.097L0.879,-0.097L0.879,0.001L0.782,0.001ZM0.782,-0.097L0.782,-0.195L0.879,-0.195L0.879,-0.097L0.782,-0.097ZM0.782,-0.195L0.782,-0.293L0.879,-0.293L0.879,-0.195L0.782,-0.195ZM0.782,-0.293L0.782,-0.391L0.879,-0.391L0.879,-0.293L0.782,-0.293ZM0.782,-0.391L0.782,-0.489L0.879,-0.489L0.879,-0.391L0.782,-0.391ZM0.782,-0.489L0.782,-0.587L0.879,-0.587L0.879,-0.489L0.782,-0.489ZM0.782,-0.587L0.782,-0.683L0.879,-0.683L0.879,-0.587L0.782,-0.587ZM0.684,-0.683L0.684,-0.781L0.782,-0.781L0.782,-0.683L0.684,-0.683ZM0.782,0.097L0.782,0.193L0.684,0.193L0.684,0.097L0.782,0.097ZM0.684,0.097L0.684,0.001L0.782,0.001L0.782,0.097L0.684,0.097ZM0.586,-0.683L0.586,-0.781L0.684,-0.781L0.684,-0.683L0.586,-0.683ZM0.684,0.097L0.684,0.193L0.586,0.193L0.586,0.097L0.684,0.097ZM0.586,0.097L0.586,0.001L0.684,0.001L0.684,0.097L0.586,0.097ZM0.488,-0.683L0.488,-0.781L0.586,-0.781L0.586,-0.683L0.488,-0.683ZM0.488,0.097L0.488,0.001L0.586,0.001L0.586,0.097L0.488,0.097ZM0.488,0.001L0.488,-0.097L0.586,-0.097L0.586,0.001L0.488,0.001ZM0.488,-0.097L0.488,-0.195L0.586,-0.195L0.586,-0.097L0.488,-0.097ZM0.488,-0.195L0.488,-0.293L0.586,-0.293L0.586,-0.195L0.488,-0.195ZM0.488,-0.293L0.488,-0.391L0.586,-0.391L0.586,-0.293L0.488,-0.293ZM0.488,-0.587L0.488,-0.683L0.586,-0.683L0.586,-0.587L0.488,-0.587ZM0.488,0.097L0.488,0.193L0.39,0.193L0.39,0.097L0.488,0.097ZM0.39,0.097L0.39,0.001L0.488,0.001L0.488,0.097L0.39,0.097ZM0.39,0.001L0.39,-0.097L0.488,-0.097L0.488,0.001L0.39,0.001ZM0.39,-0.097L0.39,-0.195L0.488,-0.195L0.488,-0.097L0.39,-0.097ZM0.39,-0.195L0.39,-0.293L0.488,-0.293L0.488,-0.195L0.39,-0.195ZM0.39,-0.489L0.39,-0.587L0.488,-0.587L0.488,-0.489L0.39,-0.489ZM0.39,-0.587L0.39,-0.683L0.488,-0.683L0.488,-0.587L0.39,-0.587ZM0.294,-0.683L0.294,-0.781L0.39,-0.781L0.39,-0.683L0.294,-0.683ZM0.39,0.097L0.39,0.193L0.294,0.193L0.294,0.097L0.39,0.097ZM0.294,0.097L0.294,0.001L0.39,0.001L0.39,0.097L0.294,0.097ZM0.294,0.001L0.294,-0.097L0.39,-0.097L0.39,0.001L0.294,0.001ZM0.294,-0.097L0.294,-0.195L0.39,-0.195L0.39,-0.097L0.294,-0.097ZM0.294,-0.195L0.294,-0.293L0.39,-0.293L0.39,-0.195L0.294,-0.195ZM0.294,-0.293L0.294,-0.391L0.39,-0.391L0.39,-0.293L0.294,-0.293ZM0.294,-0.587L0.294,-0.683L0.39,-0.683L0.39,-0.587L0.294,-0.587ZM0.196,-0.683L0.196,-0.781L0.294,-0.781L0.294,-0.683L0.196,-0.683ZM0.294,0.097L0.294,0.193L0.196,0.193L0.196,0.097L0.294,0.097ZM0.196,0.097L0.196,0.001L0.294,0.001L0.294,0.097L0.196,0.097ZM0.098,-0.683L0.098,-0.781L0.196,-0.781L0.196,-0.683L0.098,-0.683ZM0.196,0.097L0.196,0.193L0.098,0.193L0.098,0.097L0.196,0.097ZM0.098,0.097L0.098,0.001L0.196,0.001L0.196,0.097L0.098,0.097ZM0,-0.683L0,-0.781L0.098,-0.781L0.098,-0.683L0,-0.683ZM0,0.097L0,0.001L0.098,0.001L0.098,0.097L0,0.097ZM0,0.001L0,-0.097L0.098,-0.097L0.098,0.001L0,0.001ZM0,-0.097L0,-0.195L0.098,-0.195L0.098,-0.097L0,-0.097ZM0,-0.195L0,-0.293L0.098,-0.293L0.098,-0.195L0,-0.195ZM0,-0.293L0,-0.391L0.098,-0.391L0.098,-0.293L0,-0.293ZM0,-0.391L0,-0.489L0.098,-0.489L0.098,-0.391L0,-0.391ZM0,-0.489L0,-0.587L0.098,-0.587L0.098,-0.489L0,-0.489ZM0,-0.587L0,-0.683L0.098,-0.683L0.098,-0.587L0,-0.587Z" style="fill-rule:nonzero;"/>
        </g>
        <g transform="matrix(96,0,0,96,803.266,292.953)">
            <path d="M0.976,0.097L0.976,0.193L0.879,0.193L0.879,0.097L0.976,0.097ZM0.879,0.097L0.879,0.001L0.976,0.001L0.976,0.097L0.879,0.097ZM0.879,0.001L0.879,-0.097L0.976,-0.097L0.976,0.001L0.879,0.001ZM0.879,-0.391L0.879,-0.489L0.976,-0.489L0.976,-0.391L0.879,-0.391ZM0.879,-0.489L0.879,-0.587L0.976,-0.587L0.976,-0.489L0.879,-0.489ZM0.879,-0.587L0.879,-0.683L0.976,-0.683L0.976,-0.587L0.879,-0.587ZM0.782,-0.683L0.782,-0.781L0.879,-0.781L0.879,-0.683L0.782,-0.683ZM0.879,0.097L0.879,0.193L0.782,0.193L0.782,0.097L0.879,0.097ZM0.782,0.097L0.782,0.001L0.879,0.001L0.879,0.097L0.782,0.097ZM0.782,0.001L0.782,-0.097L0.879,-0.097L0.879,0.001L0.782,0.001ZM0.782,-0.097L0.782,-0.195L0.879,-0.195L0.879,-0.097L0.782,-0.097ZM0.782,-0.195L0.782,-0.293L0.879,-0.293L0.879,-0.195L0.782,-0.195ZM0.782,-0.293L0.782,-0.391L0.879,-0.391L0.879,-0.293L0.782,-0.293ZM0.782,-0.391L0.782,-0.489L0.879,-0.489L0.879,-0.391L0.782,-0.391ZM0.782,-0.489L0.782,-0.587L0.879,-0.587L0.879,-0.489L0.782,-0.489ZM0.782,-0.587L0.782,-0.683L0.879,-0.683L0.879,-0.587L0.782,-0.587ZM0.684,-0.683L0.684,-0.781L0.782,-0.781L0.782,-0.683L0.684,-0.683ZM0.782,0.097L0.782,0.193L0.684,0.193L0.684,0.097L0.782,0.097ZM0.684,0.097L0.684,0.001L0.782,0.001L0.782,0.097L0.684,0.097ZM0.684,-0.097L0.684,-0.195L0.782,-0.195L0.782,-0.097L0.684,-0.097ZM0.684,-0.195L0.684,-0.293L0.782,-0.293L0.782,-0.195L0.684,-0.195ZM0.684,-0.293L0.684,-0.391L0.782,-0.391L0.782,-0.293L0.684,-0.293ZM0.684,-0.391L0.684,-0.489L0.782,-0.489L0.782,-0.391L0.684,-0.391ZM0.684,-0.489L0.684,-0.587L0.782,-0.587L0.782,-0.489L0.684,-0.489ZM0.586,-0.683L0.586,-0.781L0.684,-0.781L0.684,-0.683L0.586,-0.683ZM0.684,0.097L0.684,0.193L0.586,0.193L0.586,0.097L0.684,0.097ZM0.586,0.097L0.586,0.001L0.684,0.001L0.684,0.097L0.586,0.097ZM0.586,-0.097L0.586,-0.195L0.684,-0.195L0.684,-0.097L0.586,-0.097ZM0.586,-0.195L0.586,-0.293L0.684,-0.293L0.684,-0.195L0.586,-0.195ZM0.586,-0.391L0.586,-0.489L0.684,-0.489L0.684,-0.391L0.586,-0.391ZM0.586,-0.489L0.586,-0.587L0.684,-0.587L0.684,-0.489L0.586,-0.489ZM0.488,-0.683L0.488,-0.781L0.586,-0.781L0.586,-0.683L0.488,-0.683ZM0.586,0.097L0.586,0.193L0.488,0.193L0.488,0.097L0.586,0.097ZM0.488,0.097L0.488,0.001L0.586,0.001L0.586,0.097L0.488,0.097ZM0.488,-0.097L0.488,-0.195L0.586,-0.195L0.586,-0.097L0.488,-0.097ZM0.488,-0.195L0.488,-0.293L0.586,-0.293L0.586,-0.195L0.488,-0.195ZM0.488,-0.391L0.488,-0.489L0.586,-0.489L0.586,-0.391L0.488,-0.391ZM0.488,-0.489L0.488,-0.587L0.586,-0.587L0.586,-0.489L0.488,-0.489ZM0.39,-0.683L0.39,-0.781L0.488,-0.781L0.488,-0.683L0.39,-0.683ZM0.488,0.097L0.488,0.193L0.39,0.193L0.39,0.097L0.488,0.097ZM0.39,0.097L0.39,0.001L0.488,0.001L0.488,0.097L0.39,0.097ZM0.39,-0.097L0.39,-0.195L0.488,-0.195L0.488,-0.097L0.39,-0.097ZM0.39,-0.195L0.39,-0.293L0.488,-0.293L0.488,-0.195L0.39,-0.195ZM0.39,-0.391L0.39,-0.489L0.488,-0.489L0.488,-0.391L0.39,-0.391ZM0.39,-0.489L0.39,-0.587L0.488,-0.587L0.488,-0.489L0.39,-0.489ZM0.294,-0.683L0.294,-0.781L0.39,-0.781L0.39,-0.683L0.294,-0.683ZM0.39,0.097L0.39,0.193L0.294,0.193L0.294,0.097L0.39,0.097ZM0.294,0.097L0.294,0.001L0.39,0.001L0.39,0.097L0.294,0.097ZM0.294,-0.097L0.294,-0.195L0.39,-0.195L0.39,-0.097L0.294,-0.097ZM0.294,-0.195L0.294,-0.293L0.39,-0.293L0.39,-0.195L0.294,-0.195ZM0.294,-0.391L0.294,-0.489L0.39,-0.489L0.39,-0.391L0.294,-0.391ZM0.294,-0.489L0.294,-0.587L0.39,-0.587L0.39,-0.489L0.294,-0.489ZM0.196,-0.683L0.196,-0.781L0.294,-0.781L0.294,-0.683L0.196,-0.683ZM0.294,0.097L0.294,0.193L0.196,0.193L0.196,0.097L0.294,0.097ZM0.196,0.097L0.196,0.001L0.294,0.001L0.294,0.097L0.196,0.097ZM0.098,-0.683L0.098,-0.781L0.196,-0.781L0.196,-0.683L0.098,-0.683ZM0.196,0.097L0.196,0.193L0.098,0.193L0.098,0.097L0.196,0.097ZM0.098,0.097L0.098,0.001L0.196,0.001L0.196,0.097L0.098,0.097ZM0,-0.683L0,-0.781L0.098,-0.781L0.098,-0.683L0,-0.683ZM0,0.097L0,0.001L0.098,0.001L0.098,0.097L0,0.097ZM0,0.001L0,-0.097L0.098,-0.097L0.098,0.001L0,0.001ZM0,-0.097L0,-0.195L0.098,-0.195L0.098,-0.097L0,-0.097ZM0,-0.195L0,-0.293L0.098,-0.293L0.098,-0.195L0,-0.195ZM0,-0.293L0,-0.391L0.098,-0.391L0.098,-0.293L0,-0.293ZM0,-0.391L0,-0.489L0.098,-0.489L0.098,-0.391L0,-0.391ZM0,-0.489L0,-0.587L0.098,-0.587L0.098,-0.489L0,-0.489ZM0,-0.587L0,-0.683L0.098,-0.683L0.098,-0.587L0,-0.587Z" style="fill-rule:nonzero;"/>
        </g>
        <g transform="matrix(96,0,0,96,887.688,292.953)">
            <path d="M0.879,0.097L0.879,0.001L0.976,0.001L0.976,0.097L0.879,0.097ZM0.879,0.001L0.879,-0.097L0.976,-0.097L0.976,0.001L0.879,0.001ZM0.879,-0.097L0.879,-0.195L0.976,-0.195L0.976,-0.097L0.879,-0.097ZM0.879,-0.195L0.879,-0.293L0.976,-0.293L0.976,-0.195L0.879,-0.195ZM0.879,-0.293L0.879,-0.391L0.976,-0.391L0.976,-0.293L0.879,-0.293ZM0.879,-0.391L0.879,-0.489L0.976,-0.489L0.976,-0.391L0.879,-0.391ZM0.879,-0.489L0.879,-0.587L0.976,-0.587L0.976,-0.489L0.879,-0.489ZM0.879,0.097L0.879,0.193L0.782,0.193L0.782,0.097L0.879,0.097ZM0.782,0.097L0.782,0.001L0.879,0.001L0.879,0.097L0.782,0.097ZM0.782,0.001L0.782,-0.097L0.879,-0.097L0.879,0.001L0.782,0.001ZM0.782,-0.097L0.782,-0.195L0.879,-0.195L0.879,-0.097L0.782,-0.097ZM0.782,-0.195L0.782,-0.293L0.879,-0.293L0.879,-0.195L0.782,-0.195ZM0.782,-0.293L0.782,-0.391L0.879,-0.391L0.879,-0.293L0.782,-0.293ZM0.782,-0.391L0.782,-0.489L0.879,-0.489L0.879,-0.391L0.782,-0.391ZM0.782,-0.489L0.782,-0.587L0.879,-0.587L0.879,-0.489L0.782,-0.489ZM0.782,-0.587L0.782,-0.683L0.879,-0.683L0.879,-0.587L0.782,-0.587ZM0.684,-0.683L0.684,-0.781L0.782,-0.781L0.782,-0.683L0.684,-0.683ZM0.782,0.097L0.782,0.193L0.684,0.193L0.684,0.097L0.782,0.097ZM0.684,0.097L0.684,0.001L0.782,0.001L0.782,0.097L0.684,0.097ZM0.684,0.001L0.684,-0.097L0.782,-0.097L0.782,0.001L0.684,0.001ZM0.684,-0.293L0.684,-0.391L0.782,-0.391L0.782,-0.293L0.684,-0.293ZM0.684,-0.391L0.684,-0.489L0.782,-0.489L0.782,-0.391L0.684,-0.391ZM0.684,-0.587L0.684,-0.683L0.782,-0.683L0.782,-0.587L0.684,-0.587ZM0.586,-0.683L0.586,-0.781L0.684,-0.781L0.684,-0.683L0.586,-0.683ZM0.684,0.097L0.684,0.193L0.586,0.193L0.586,0.097L0.684,0.097ZM0.586,0.097L0.586,0.001L0.684,0.001L0.684,0.097L0.586,0.097ZM0.586,-0.391L0.586,-0.489L0.684,-0.489L0.684,-0.391L0.586,-0.391ZM0.488,-0.683L0.488,-0.781L0.586,-0.781L0.586,-0.683L0.488,-0.683ZM0.586,0.097L0.586,0.193L0.488,0.193L0.488,0.097L0.586,0.097ZM0.488,0.097L0.488,0.001L0.586,0.001L0.586,0.097L0.488,0.097ZM0.488,-0.097L0.488,-0.195L0.586,-0.195L0.586,-0.097L0.488,-0.097ZM0.488,-0.195L0.488,-0.293L0.586,-0.293L0.586,-0.195L0.488,-0.195ZM0.488,-0.391L0.488,-0.489L0.586,-0.489L0.586,-0.391L0.488,-0.391ZM0.488,-0.489L0.488,-0.587L0.586,-0.587L0.586,-0.489L0.488,-0.489ZM0.39,-0.683L0.39,-0.781L0.488,-0.781L0.488,-0.683L0.39,-0.683ZM0.488,0.097L0.488,0.193L0.39,0.193L0.39,0.097L0.488,0.097ZM0.39,0.097L0.39,0.001L0.488,0.001L0.488,0.097L0.39,0.097ZM0.39,-0.097L0.39,-0.195L0.488,-0.195L0.488,-0.097L0.39,-0.097ZM0.39,-0.195L0.39,-0.293L0.488,-0.293L0.488,-0.195L0.39,-0.195ZM0.39,-0.391L0.39,-0.489L0.488,-0.489L0.488,-0.391L0.39,-0.391ZM0.39,-0.489L0.39,-0.587L0.488,-0.587L0.488,-0.489L0.39,-0.489ZM0.294,-0.683L0.294,-0.781L0.39,-0.781L0.39,-0.683L0.294,-0.683ZM0.39,0.097L0.39,0.193L0.294,0.193L0.294,0.097L0.39,0.097ZM0.294,0.097L0.294,0.001L0.39,0.001L0.39,0.097L0.294,0.097ZM0.294,-0.097L0.294,-0.195L0.39,-0.195L0.39,-0.097L0.294,-0.097ZM0.294,-0.195L0.294,-0.293L0.39,-0.293L0.39,-0.195L0.294,-0.195ZM0.294,-0.391L0.294,-0.489L0.39,-0.489L0.39,-0.391L0.294,-0.391ZM0.294,-0.489L0.294,-0.587L0.39,-0.587L0.39,-0.489L0.294,-0.489ZM0.196,-0.683L0.196,-0.781L0.294,-0.781L0.294,-0.683L0.196,-0.683ZM0.294,0.097L0.294,0.193L0.196,0.193L0.196,0.097L0.294,0.097ZM0.196,0.097L0.196,0.001L0.294,0.001L0.294,0.097L0.196,0.097ZM0.196,-0.195L0.196,-0.293L0.294,-0.293L0.294,-0.195L0.196,-0.195ZM0.098,-0.683L0.098,-0.781L0.196,-0.781L0.196,-0.683L0.098,-0.683ZM0.098,0.097L0.098,0.001L0.196,0.001L0.196,0.097L0.098,0.097ZM0.098,0.001L0.098,-0.097L0.196,-0.097L0.196,0.001L0.098,0.001ZM0.098,-0.195L0.098,-0.293L0.196,-0.293L0.196,-0.195L0.098,-0.195ZM0.098,-0.293L0.098,-0.391L0.196,-0.391L0.196,-0.293L0.098,-0.293ZM0.098,-0.587L0.098,-0.683L0.196,-0.683L0.196,-0.587L0.098,-0.587ZM0,0.001L0,-0.097L0.098,-0.097L0.098,0.001L0,0.001ZM0,-0.097L0,-0.195L0.098,-0.195L0.098,-0.097L0,-0.097ZM0,-0.195L0,-0.293L0.098,-0.293L0.098,-0.195L0,-0.195ZM0,-0.293L0,-0.391L0.098,-0.391L0.098,-0.293L0,-0.293ZM0,-0.391L0,-0.489L0.098,-0.489L0.098,-0.391L0,-0.391ZM0,-0.489L0,-0.587L0.098,-0.587L0.098,-0.489L0,-0.489ZM0,-0.587L0,-0.683L0.098,-0.683L0.098,-0.587L0,-0.587Z" style="fill-rule:nonzero;"/>
        </g>
    </g>
    <g transform="matrix(0.961281,-0.275571,0.275571,0.961281,-197.915,-337.548)">
        <g transform="matrix(144,0,0,144,188,621.2)">
            <path d="M0.953,-0.425C0.924,-0.387 0.89,-0.352 0.849,-0.321C0.808,-0.29 0.762,-0.275 0.71,-0.275C0.682,-0.275 0.654,-0.282 0.626,-0.296C0.599,-0.31 0.577,-0.332 0.56,-0.36C0.548,-0.333 0.533,-0.303 0.515,-0.269C0.497,-0.235 0.475,-0.2 0.45,-0.166C0.425,-0.132 0.397,-0.101 0.366,-0.073C0.335,-0.044 0.303,-0.021 0.268,-0.003C0.238,0.011 0.213,0.018 0.193,0.018C0.133,0.018 0.102,-0.009 0.103,-0.063C0.102,-0.092 0.108,-0.123 0.119,-0.155C0.13,-0.187 0.143,-0.218 0.16,-0.248C0.177,-0.278 0.195,-0.306 0.214,-0.333C0.233,-0.359 0.251,-0.381 0.268,-0.398C0.303,-0.436 0.343,-0.468 0.388,-0.495C0.433,-0.522 0.481,-0.538 0.533,-0.543C0.536,-0.556 0.541,-0.571 0.548,-0.589C0.554,-0.606 0.566,-0.617 0.583,-0.62C0.591,-0.622 0.599,-0.623 0.608,-0.625C0.616,-0.627 0.623,-0.629 0.63,-0.633C0.635,-0.636 0.64,-0.636 0.645,-0.634C0.65,-0.631 0.651,-0.627 0.648,-0.62C0.636,-0.602 0.627,-0.578 0.621,-0.55C0.615,-0.522 0.613,-0.491 0.613,-0.458C0.613,-0.411 0.621,-0.373 0.639,-0.343C0.656,-0.313 0.687,-0.298 0.73,-0.298C0.773,-0.298 0.813,-0.312 0.848,-0.34C0.882,-0.368 0.912,-0.399 0.935,-0.433C0.938,-0.441 0.944,-0.443 0.951,-0.44C0.959,-0.437 0.959,-0.432 0.953,-0.425ZM0.54,-0.408C0.537,-0.423 0.534,-0.44 0.533,-0.46C0.531,-0.48 0.53,-0.499 0.53,-0.518C0.53,-0.526 0.527,-0.53 0.52,-0.53C0.502,-0.53 0.483,-0.524 0.463,-0.511C0.443,-0.499 0.423,-0.482 0.403,-0.461C0.383,-0.44 0.363,-0.417 0.343,-0.39C0.323,-0.363 0.304,-0.336 0.288,-0.308C0.266,-0.271 0.246,-0.231 0.229,-0.189C0.211,-0.146 0.203,-0.106 0.205,-0.068C0.205,-0.056 0.207,-0.045 0.211,-0.035C0.215,-0.025 0.225,-0.02 0.24,-0.02C0.268,-0.02 0.299,-0.036 0.333,-0.068C0.366,-0.099 0.397,-0.136 0.428,-0.179C0.458,-0.221 0.483,-0.264 0.504,-0.308C0.525,-0.351 0.537,-0.384 0.54,-0.408Z" style="fill:rgb(255,0,0);fill-rule:nonzero;"/>
        </g>
        <g transform="matrix(144,0,0,144,278,621.2)">
            <path d="M0.85,-0.393C0.762,-0.281 0.667,-0.198 0.566,-0.144C0.465,-0.09 0.36,-0.05 0.25,-0.025C0.212,-0.017 0.178,-0.01 0.15,-0.005C0.122,0 0.093,0.005 0.065,0.01C0.017,0.092 -0.029,0.173 -0.073,0.254C-0.116,0.335 -0.159,0.415 -0.203,0.495C-0.266,0.613 -0.323,0.725 -0.375,0.83C-0.427,0.935 -0.483,1.039 -0.543,1.143C-0.554,1.163 -0.57,1.178 -0.59,1.189C-0.61,1.2 -0.633,1.209 -0.66,1.218C-0.687,1.226 -0.718,1.234 -0.753,1.243C-0.788,1.251 -0.826,1.263 -0.868,1.278C-0.878,1.283 -0.883,1.281 -0.885,1.274C-0.887,1.266 -0.882,1.261 -0.873,1.258C-0.829,1.241 -0.793,1.225 -0.763,1.209C-0.733,1.193 -0.705,1.174 -0.681,1.153C-0.657,1.131 -0.634,1.105 -0.613,1.075C-0.591,1.045 -0.566,1.008 -0.538,0.963C-0.509,0.916 -0.475,0.858 -0.434,0.789C-0.393,0.72 -0.347,0.643 -0.298,0.56C-0.247,0.477 -0.195,0.388 -0.14,0.294C-0.085,0.2 -0.029,0.105 0.028,0.01C0.018,0.007 0.013,-0.003 0.013,-0.018C0.013,-0.028 0.018,-0.033 0.029,-0.035C0.04,-0.037 0.048,-0.038 0.055,-0.04L0.17,-0.228C0.223,-0.314 0.277,-0.404 0.33,-0.498C0.383,-0.591 0.438,-0.674 0.495,-0.748C0.502,-0.754 0.511,-0.759 0.523,-0.763C0.526,-0.764 0.533,-0.766 0.543,-0.768C0.553,-0.769 0.563,-0.771 0.573,-0.773C0.583,-0.774 0.592,-0.775 0.6,-0.776C0.608,-0.777 0.613,-0.778 0.615,-0.778C0.62,-0.778 0.623,-0.776 0.623,-0.773C0.623,-0.768 0.619,-0.762 0.613,-0.755C0.578,-0.723 0.547,-0.693 0.52,-0.664C0.493,-0.635 0.468,-0.606 0.445,-0.579C0.422,-0.551 0.4,-0.523 0.379,-0.495C0.358,-0.467 0.337,-0.436 0.315,-0.403C0.332,-0.421 0.35,-0.44 0.37,-0.46C0.39,-0.48 0.41,-0.498 0.43,-0.515C0.45,-0.532 0.47,-0.545 0.49,-0.556C0.51,-0.567 0.528,-0.573 0.545,-0.573C0.562,-0.573 0.575,-0.568 0.586,-0.558C0.597,-0.548 0.603,-0.531 0.603,-0.508C0.603,-0.491 0.595,-0.465 0.581,-0.43C0.567,-0.395 0.543,-0.356 0.509,-0.313C0.475,-0.269 0.429,-0.224 0.373,-0.178C0.316,-0.131 0.245,-0.088 0.16,-0.048C0.205,-0.053 0.255,-0.06 0.311,-0.071C0.367,-0.082 0.425,-0.1 0.485,-0.126C0.545,-0.152 0.605,-0.187 0.665,-0.231C0.725,-0.275 0.782,-0.333 0.835,-0.403C0.837,-0.406 0.84,-0.407 0.844,-0.406C0.848,-0.405 0.85,-0.401 0.85,-0.393ZM0.5,-0.458C0.5,-0.464 0.499,-0.472 0.496,-0.483C0.494,-0.493 0.485,-0.498 0.47,-0.498C0.462,-0.498 0.45,-0.493 0.434,-0.484C0.418,-0.475 0.4,-0.462 0.38,-0.446C0.36,-0.43 0.339,-0.411 0.318,-0.388C0.296,-0.364 0.275,-0.338 0.255,-0.31C0.227,-0.27 0.199,-0.227 0.173,-0.181C0.146,-0.135 0.119,-0.088 0.093,-0.04C0.148,-0.055 0.2,-0.08 0.249,-0.115C0.298,-0.15 0.341,-0.188 0.379,-0.23C0.416,-0.272 0.446,-0.313 0.468,-0.355C0.489,-0.397 0.5,-0.431 0.5,-0.458Z" style="fill:rgb(255,0,0);fill-rule:nonzero;"/>
        </g>
        <g transform="matrix(144,0,0,144,357.2,621.2)">
            <path d="M0.705,-0.913C0.692,-0.909 0.677,-0.903 0.66,-0.894C0.643,-0.885 0.631,-0.873 0.623,-0.86C0.584,-0.807 0.547,-0.751 0.511,-0.693C0.475,-0.634 0.441,-0.576 0.408,-0.518L0.718,-0.518C0.723,-0.514 0.725,-0.511 0.725,-0.508C0.725,-0.504 0.723,-0.502 0.72,-0.5C0.707,-0.5 0.687,-0.5 0.66,-0.499C0.633,-0.498 0.604,-0.497 0.573,-0.495C0.541,-0.493 0.508,-0.492 0.475,-0.49C0.442,-0.488 0.413,-0.487 0.388,-0.485C0.341,-0.402 0.305,-0.331 0.28,-0.273C0.255,-0.214 0.243,-0.163 0.243,-0.12C0.243,-0.06 0.27,-0.03 0.325,-0.03C0.352,-0.03 0.382,-0.037 0.416,-0.051C0.45,-0.065 0.487,-0.084 0.525,-0.108C0.53,-0.113 0.535,-0.112 0.54,-0.106C0.545,-0.1 0.543,-0.096 0.535,-0.093C0.478,-0.056 0.426,-0.029 0.378,-0.013C0.329,0.004 0.28,0.013 0.23,0.013C0.203,0.013 0.18,0.005 0.16,-0.011C0.14,-0.027 0.13,-0.054 0.13,-0.093C0.13,-0.126 0.145,-0.175 0.175,-0.24C0.205,-0.305 0.249,-0.385 0.308,-0.48C0.288,-0.478 0.263,-0.476 0.234,-0.474C0.205,-0.471 0.188,-0.47 0.183,-0.47C0.174,-0.47 0.17,-0.473 0.17,-0.48C0.177,-0.492 0.188,-0.503 0.203,-0.515L0.33,-0.518C0.345,-0.543 0.362,-0.57 0.38,-0.601C0.398,-0.632 0.417,-0.663 0.435,-0.694C0.453,-0.725 0.472,-0.755 0.491,-0.784C0.51,-0.813 0.528,-0.84 0.543,-0.865C0.561,-0.873 0.586,-0.884 0.619,-0.898C0.651,-0.911 0.68,-0.922 0.705,-0.93C0.708,-0.93 0.711,-0.928 0.713,-0.924C0.714,-0.92 0.712,-0.916 0.705,-0.913Z" style="fill:rgb(255,0,0);fill-rule:nonzero;"/>
        </g>
    </g>
</svg>
